<mxfile host="65bd71144e">
    <diagram id="R2lEEEUBdFMjLlhIrx00" name="Page-1">
        <mxGraphModel dx="852" dy="600" grid="1" gridSize="10" guides="1" tooltips="1" connect="1" arrows="1" fold="1" page="1" pageScale="1" pageWidth="1100" pageHeight="850" math="0" shadow="0" extFonts="Permanent Marker^https://fonts.googleapis.com/css?family=Permanent+Marker">
            <root>
                <mxCell id="0"/>
                <mxCell id="1" parent="0"/>
                <mxCell id="GSxFg-PIzHMh7uF5a8ec-13" value="MansFriend" style="swimlane;fontStyle=1;align=center;verticalAlign=top;childLayout=stackLayout;horizontal=1;startSize=26;horizontalStack=0;resizeParent=1;resizeParentMax=0;resizeLast=0;collapsible=1;marginBottom=0;" parent="1" vertex="1">
                    <mxGeometry x="466" y="226" width="160" height="218" as="geometry"/>
                </mxCell>
                <mxCell id="GSxFg-PIzHMh7uF5a8ec-17" value="- AnimalGroup: AnimalGroup" style="text;strokeColor=none;fillColor=none;align=left;verticalAlign=top;spacingLeft=4;spacingRight=4;overflow=hidden;rotatable=0;points=[[0,0.5],[1,0.5]];portConstraint=eastwest;" parent="GSxFg-PIzHMh7uF5a8ec-13" vertex="1">
                    <mxGeometry y="26" width="160" height="26" as="geometry"/>
                </mxCell>
                <mxCell id="GSxFg-PIzHMh7uF5a8ec-18" value="- Birthdate : date" style="text;strokeColor=none;fillColor=none;align=left;verticalAlign=top;spacingLeft=4;spacingRight=4;overflow=hidden;rotatable=0;points=[[0,0.5],[1,0.5]];portConstraint=eastwest;" parent="GSxFg-PIzHMh7uF5a8ec-13" vertex="1">
                    <mxGeometry y="52" width="160" height="26" as="geometry"/>
                </mxCell>
                <mxCell id="3" value="- Name : string" style="text;strokeColor=none;fillColor=none;align=left;verticalAlign=top;spacingLeft=4;spacingRight=4;overflow=hidden;rotatable=0;points=[[0,0.5],[1,0.5]];portConstraint=eastwest;" vertex="1" parent="GSxFg-PIzHMh7uF5a8ec-13">
                    <mxGeometry y="78" width="160" height="26" as="geometry"/>
                </mxCell>
                <mxCell id="4" value="- Commands : collection" style="text;strokeColor=none;fillColor=none;align=left;verticalAlign=top;spacingLeft=4;spacingRight=4;overflow=hidden;rotatable=0;points=[[0,0.5],[1,0.5]];portConstraint=eastwest;" vertex="1" parent="GSxFg-PIzHMh7uF5a8ec-13">
                    <mxGeometry y="104" width="160" height="26" as="geometry"/>
                </mxCell>
                <mxCell id="GSxFg-PIzHMh7uF5a8ec-15" value="" style="line;strokeWidth=1;fillColor=none;align=left;verticalAlign=middle;spacingTop=-1;spacingLeft=3;spacingRight=3;rotatable=0;labelPosition=right;points=[];portConstraint=eastwest;" parent="GSxFg-PIzHMh7uF5a8ec-13" vertex="1">
                    <mxGeometry y="130" width="160" height="62" as="geometry"/>
                </mxCell>
                <mxCell id="GSxFg-PIzHMh7uF5a8ec-16" value="+ getCommands(): collection" style="text;strokeColor=none;fillColor=none;align=left;verticalAlign=top;spacingLeft=4;spacingRight=4;overflow=hidden;rotatable=0;points=[[0,0.5],[1,0.5]];portConstraint=eastwest;" parent="GSxFg-PIzHMh7uF5a8ec-13" vertex="1">
                    <mxGeometry y="192" width="160" height="26" as="geometry"/>
                </mxCell>
                <mxCell id="GSxFg-PIzHMh7uF5a8ec-35" value="PackAnimal" style="swimlane;fontStyle=1;align=center;verticalAlign=top;childLayout=stackLayout;horizontal=1;startSize=26;horizontalStack=0;resizeParent=1;resizeParentMax=0;resizeLast=0;collapsible=1;marginBottom=0;" parent="1" vertex="1">
                    <mxGeometry x="684" y="242" width="160" height="142" as="geometry"/>
                </mxCell>
                <mxCell id="GSxFg-PIzHMh7uF5a8ec-46" value="&amp;nbsp;- Lifting weight: int" style="text;whiteSpace=wrap;html=1;" parent="GSxFg-PIzHMh7uF5a8ec-35" vertex="1">
                    <mxGeometry y="26" width="160" height="30" as="geometry"/>
                </mxCell>
                <mxCell id="GSxFg-PIzHMh7uF5a8ec-38" value="" style="line;strokeWidth=1;fillColor=none;align=left;verticalAlign=middle;spacingTop=-1;spacingLeft=3;spacingRight=3;rotatable=0;labelPosition=right;points=[];portConstraint=eastwest;" parent="GSxFg-PIzHMh7uF5a8ec-35" vertex="1">
                    <mxGeometry y="56" width="160" height="8" as="geometry"/>
                </mxCell>
                <mxCell id="GSxFg-PIzHMh7uF5a8ec-39" value="+ Voise(): void" style="text;strokeColor=none;fillColor=none;align=left;verticalAlign=top;spacingLeft=4;spacingRight=4;overflow=hidden;rotatable=0;points=[[0,0.5],[1,0.5]];portConstraint=eastwest;" parent="GSxFg-PIzHMh7uF5a8ec-35" vertex="1">
                    <mxGeometry y="64" width="160" height="26" as="geometry"/>
                </mxCell>
                <mxCell id="GSxFg-PIzHMh7uF5a8ec-40" value="+ Sleep(): void" style="text;strokeColor=none;fillColor=none;align=left;verticalAlign=top;spacingLeft=4;spacingRight=4;overflow=hidden;rotatable=0;points=[[0,0.5],[1,0.5]];portConstraint=eastwest;" parent="GSxFg-PIzHMh7uF5a8ec-35" vertex="1">
                    <mxGeometry y="90" width="160" height="26" as="geometry"/>
                </mxCell>
                <mxCell id="GSxFg-PIzHMh7uF5a8ec-41" value="+ Feed(): void" style="text;strokeColor=none;fillColor=none;align=left;verticalAlign=top;spacingLeft=4;spacingRight=4;overflow=hidden;rotatable=0;points=[[0,0.5],[1,0.5]];portConstraint=eastwest;" parent="GSxFg-PIzHMh7uF5a8ec-35" vertex="1">
                    <mxGeometry y="116" width="160" height="26" as="geometry"/>
                </mxCell>
                <mxCell id="GSxFg-PIzHMh7uF5a8ec-92" value="Extends" style="endArrow=block;endSize=16;endFill=0;html=1;rounded=0;entryX=0.5;entryY=0;entryDx=0;entryDy=0;exitX=0.992;exitY=1.036;exitDx=0;exitDy=0;exitPerimeter=0;" parent="1" source="3BqUhhTjt_RYglcjaVS9-34" target="3BqUhhTjt_RYglcjaVS9-23" edge="1">
                    <mxGeometry x="0.4982" width="160" relative="1" as="geometry">
                        <mxPoint x="382" y="74" as="sourcePoint"/>
                        <mxPoint x="522" y="113" as="targetPoint"/>
                        <Array as="points">
                            <mxPoint x="330" y="135"/>
                        </Array>
                        <mxPoint as="offset"/>
                    </mxGeometry>
                </mxCell>
                <mxCell id="GSxFg-PIzHMh7uF5a8ec-94" value="Extends" style="endArrow=block;endSize=16;endFill=0;html=1;rounded=0;entryX=0;entryY=0.5;entryDx=0;entryDy=0;exitX=1.004;exitY=0.32;exitDx=0;exitDy=0;exitPerimeter=0;" parent="1" source="3BqUhhTjt_RYglcjaVS9-40" target="3BqUhhTjt_RYglcjaVS9-27" edge="1">
                    <mxGeometry x="-0.2572" width="160" relative="1" as="geometry">
                        <mxPoint x="180" y="325" as="sourcePoint"/>
                        <mxPoint x="247.99999999999997" y="423.74799999999993" as="targetPoint"/>
                        <Array as="points"/>
                        <mxPoint as="offset"/>
                    </mxGeometry>
                </mxCell>
                <mxCell id="GSxFg-PIzHMh7uF5a8ec-95" value="Extends" style="endArrow=block;endSize=16;endFill=0;html=1;rounded=0;exitX=1;exitY=0.5;exitDx=0;exitDy=0;entryX=0.487;entryY=1.072;entryDx=0;entryDy=0;entryPerimeter=0;" parent="1" source="3BqUhhTjt_RYglcjaVS9-45" target="3BqUhhTjt_RYglcjaVS9-28" edge="1">
                    <mxGeometry x="0.4429" width="160" relative="1" as="geometry">
                        <mxPoint x="361.28" y="470.36" as="sourcePoint"/>
                        <mxPoint x="361.4399999999998" y="417.092" as="targetPoint"/>
                        <Array as="points">
                            <mxPoint x="326" y="498"/>
                        </Array>
                        <mxPoint as="offset"/>
                    </mxGeometry>
                </mxCell>
                <mxCell id="GSxFg-PIzHMh7uF5a8ec-96" value="Extends" style="endArrow=block;endSize=16;endFill=0;html=1;rounded=0;entryX=0.5;entryY=0;entryDx=0;entryDy=0;exitX=0;exitY=0.5;exitDx=0;exitDy=0;" parent="1" source="3BqUhhTjt_RYglcjaVS9-10" target="GSxFg-PIzHMh7uF5a8ec-35" edge="1">
                    <mxGeometry x="0.4982" width="160" relative="1" as="geometry">
                        <mxPoint x="952" y="82" as="sourcePoint"/>
                        <mxPoint x="932" y="252" as="targetPoint"/>
                        <Array as="points">
                            <mxPoint x="764" y="121"/>
                        </Array>
                        <mxPoint as="offset"/>
                    </mxGeometry>
                </mxCell>
                <mxCell id="GSxFg-PIzHMh7uF5a8ec-97" value="Extends" style="endArrow=block;endSize=16;endFill=0;html=1;rounded=0;exitX=-0.003;exitY=0.285;exitDx=0;exitDy=0;exitPerimeter=0;entryX=1;entryY=0.5;entryDx=0;entryDy=0;" parent="1" source="3BqUhhTjt_RYglcjaVS9-16" target="GSxFg-PIzHMh7uF5a8ec-39" edge="1">
                    <mxGeometry x="-0.2" width="160" relative="1" as="geometry">
                        <mxPoint x="992" y="312" as="sourcePoint"/>
                        <mxPoint x="912" y="314" as="targetPoint"/>
                        <Array as="points"/>
                        <mxPoint as="offset"/>
                    </mxGeometry>
                </mxCell>
                <mxCell id="GSxFg-PIzHMh7uF5a8ec-98" value="Extends" style="endArrow=block;endSize=16;endFill=0;html=1;rounded=0;exitX=0;exitY=0.5;exitDx=0;exitDy=0;entryX=0.5;entryY=1;entryDx=0;entryDy=0;" parent="1" source="3BqUhhTjt_RYglcjaVS9-21" target="GSxFg-PIzHMh7uF5a8ec-35" edge="1">
                    <mxGeometry x="0.5147" width="160" relative="1" as="geometry">
                        <mxPoint x="1011.6800000000001" y="531.46" as="sourcePoint"/>
                        <mxPoint x="832" y="402" as="targetPoint"/>
                        <Array as="points">
                            <mxPoint x="764" y="505"/>
                        </Array>
                        <mxPoint as="offset"/>
                    </mxGeometry>
                </mxCell>
                <mxCell id="3BqUhhTjt_RYglcjaVS9-2" value="" style="endArrow=none;html=1;edgeStyle=orthogonalEdgeStyle;rounded=0;exitX=0.996;exitY=0.377;exitDx=0;exitDy=0;exitPerimeter=0;entryX=-0.006;entryY=0.325;entryDx=0;entryDy=0;entryPerimeter=0;" parent="1" source="3" target="GSxFg-PIzHMh7uF5a8ec-39" edge="1">
                    <mxGeometry relative="1" as="geometry">
                        <mxPoint x="468" y="372" as="sourcePoint"/>
                        <mxPoint x="728" y="314" as="targetPoint"/>
                    </mxGeometry>
                </mxCell>
                <mxCell id="3BqUhhTjt_RYglcjaVS9-3" value="parent" style="edgeLabel;resizable=0;html=1;align=left;verticalAlign=bottom;" parent="3BqUhhTjt_RYglcjaVS9-2" connectable="0" vertex="1">
                    <mxGeometry x="-1" relative="1" as="geometry">
                        <mxPoint y="16" as="offset"/>
                    </mxGeometry>
                </mxCell>
                <mxCell id="3BqUhhTjt_RYglcjaVS9-4" value="child" style="edgeLabel;resizable=0;html=1;align=right;verticalAlign=bottom;" parent="3BqUhhTjt_RYglcjaVS9-2" connectable="0" vertex="1">
                    <mxGeometry x="1" relative="1" as="geometry"/>
                </mxCell>
                <mxCell id="3BqUhhTjt_RYglcjaVS9-7" value="Horse" style="swimlane;fontStyle=1;align=center;verticalAlign=top;childLayout=stackLayout;horizontal=1;startSize=26;horizontalStack=0;resizeParent=1;resizeParentMax=0;resizeLast=0;collapsible=1;marginBottom=0;" parent="1" vertex="1">
                    <mxGeometry x="924" y="74" width="160" height="112" as="geometry"/>
                </mxCell>
                <mxCell id="3BqUhhTjt_RYglcjaVS9-9" value="" style="line;strokeWidth=1;fillColor=none;align=left;verticalAlign=middle;spacingTop=-1;spacingLeft=3;spacingRight=3;rotatable=0;labelPosition=right;points=[];portConstraint=eastwest;" parent="3BqUhhTjt_RYglcjaVS9-7" vertex="1">
                    <mxGeometry y="26" width="160" height="8" as="geometry"/>
                </mxCell>
                <mxCell id="3BqUhhTjt_RYglcjaVS9-10" value="+ Voise(): void" style="text;strokeColor=none;fillColor=none;align=left;verticalAlign=top;spacingLeft=4;spacingRight=4;overflow=hidden;rotatable=0;points=[[0,0.5],[1,0.5]];portConstraint=eastwest;" parent="3BqUhhTjt_RYglcjaVS9-7" vertex="1">
                    <mxGeometry y="34" width="160" height="26" as="geometry"/>
                </mxCell>
                <mxCell id="3BqUhhTjt_RYglcjaVS9-11" value="+ Sleep(): void" style="text;strokeColor=none;fillColor=none;align=left;verticalAlign=top;spacingLeft=4;spacingRight=4;overflow=hidden;rotatable=0;points=[[0,0.5],[1,0.5]];portConstraint=eastwest;" parent="3BqUhhTjt_RYglcjaVS9-7" vertex="1">
                    <mxGeometry y="60" width="160" height="26" as="geometry"/>
                </mxCell>
                <mxCell id="3BqUhhTjt_RYglcjaVS9-12" value="+ Feed(): void" style="text;strokeColor=none;fillColor=none;align=left;verticalAlign=top;spacingLeft=4;spacingRight=4;overflow=hidden;rotatable=0;points=[[0,0.5],[1,0.5]];portConstraint=eastwest;" parent="3BqUhhTjt_RYglcjaVS9-7" vertex="1">
                    <mxGeometry y="86" width="160" height="26" as="geometry"/>
                </mxCell>
                <mxCell id="3BqUhhTjt_RYglcjaVS9-13" value="Camel" style="swimlane;fontStyle=1;align=center;verticalAlign=top;childLayout=stackLayout;horizontal=1;startSize=26;horizontalStack=0;resizeParent=1;resizeParentMax=0;resizeLast=0;collapsible=1;marginBottom=0;" parent="1" vertex="1">
                    <mxGeometry x="924" y="252" width="160" height="112" as="geometry"/>
                </mxCell>
                <mxCell id="3BqUhhTjt_RYglcjaVS9-14" value="" style="line;strokeWidth=1;fillColor=none;align=left;verticalAlign=middle;spacingTop=-1;spacingLeft=3;spacingRight=3;rotatable=0;labelPosition=right;points=[];portConstraint=eastwest;" parent="3BqUhhTjt_RYglcjaVS9-13" vertex="1">
                    <mxGeometry y="26" width="160" height="8" as="geometry"/>
                </mxCell>
                <mxCell id="3BqUhhTjt_RYglcjaVS9-15" value="+ Voise(): void" style="text;strokeColor=none;fillColor=none;align=left;verticalAlign=top;spacingLeft=4;spacingRight=4;overflow=hidden;rotatable=0;points=[[0,0.5],[1,0.5]];portConstraint=eastwest;" parent="3BqUhhTjt_RYglcjaVS9-13" vertex="1">
                    <mxGeometry y="34" width="160" height="26" as="geometry"/>
                </mxCell>
                <mxCell id="3BqUhhTjt_RYglcjaVS9-16" value="+ Sleep(): void" style="text;strokeColor=none;fillColor=none;align=left;verticalAlign=top;spacingLeft=4;spacingRight=4;overflow=hidden;rotatable=0;points=[[0,0.5],[1,0.5]];portConstraint=eastwest;" parent="3BqUhhTjt_RYglcjaVS9-13" vertex="1">
                    <mxGeometry y="60" width="160" height="26" as="geometry"/>
                </mxCell>
                <mxCell id="3BqUhhTjt_RYglcjaVS9-17" value="+ Feed(): void" style="text;strokeColor=none;fillColor=none;align=left;verticalAlign=top;spacingLeft=4;spacingRight=4;overflow=hidden;rotatable=0;points=[[0,0.5],[1,0.5]];portConstraint=eastwest;" parent="3BqUhhTjt_RYglcjaVS9-13" vertex="1">
                    <mxGeometry y="86" width="160" height="26" as="geometry"/>
                </mxCell>
                <mxCell id="3BqUhhTjt_RYglcjaVS9-18" value="Donkey" style="swimlane;fontStyle=1;align=center;verticalAlign=top;childLayout=stackLayout;horizontal=1;startSize=26;horizontalStack=0;resizeParent=1;resizeParentMax=0;resizeLast=0;collapsible=1;marginBottom=0;" parent="1" vertex="1">
                    <mxGeometry x="924" y="432" width="160" height="112" as="geometry"/>
                </mxCell>
                <mxCell id="3BqUhhTjt_RYglcjaVS9-19" value="" style="line;strokeWidth=1;fillColor=none;align=left;verticalAlign=middle;spacingTop=-1;spacingLeft=3;spacingRight=3;rotatable=0;labelPosition=right;points=[];portConstraint=eastwest;" parent="3BqUhhTjt_RYglcjaVS9-18" vertex="1">
                    <mxGeometry y="26" width="160" height="8" as="geometry"/>
                </mxCell>
                <mxCell id="3BqUhhTjt_RYglcjaVS9-20" value="+ Voise(): void" style="text;strokeColor=none;fillColor=none;align=left;verticalAlign=top;spacingLeft=4;spacingRight=4;overflow=hidden;rotatable=0;points=[[0,0.5],[1,0.5]];portConstraint=eastwest;" parent="3BqUhhTjt_RYglcjaVS9-18" vertex="1">
                    <mxGeometry y="34" width="160" height="26" as="geometry"/>
                </mxCell>
                <mxCell id="3BqUhhTjt_RYglcjaVS9-21" value="+ Sleep(): void" style="text;strokeColor=none;fillColor=none;align=left;verticalAlign=top;spacingLeft=4;spacingRight=4;overflow=hidden;rotatable=0;points=[[0,0.5],[1,0.5]];portConstraint=eastwest;" parent="3BqUhhTjt_RYglcjaVS9-18" vertex="1">
                    <mxGeometry y="60" width="160" height="26" as="geometry"/>
                </mxCell>
                <mxCell id="3BqUhhTjt_RYglcjaVS9-22" value="+ Feed(): void" style="text;strokeColor=none;fillColor=none;align=left;verticalAlign=top;spacingLeft=4;spacingRight=4;overflow=hidden;rotatable=0;points=[[0,0.5],[1,0.5]];portConstraint=eastwest;" parent="3BqUhhTjt_RYglcjaVS9-18" vertex="1">
                    <mxGeometry y="86" width="160" height="26" as="geometry"/>
                </mxCell>
                <mxCell id="3BqUhhTjt_RYglcjaVS9-23" value="HomeAnimal" style="swimlane;fontStyle=1;align=center;verticalAlign=top;childLayout=stackLayout;horizontal=1;startSize=26;horizontalStack=0;resizeParent=1;resizeParentMax=0;resizeLast=0;collapsible=1;marginBottom=0;" parent="1" vertex="1">
                    <mxGeometry x="248" y="252" width="160" height="112" as="geometry"/>
                </mxCell>
                <mxCell id="3BqUhhTjt_RYglcjaVS9-25" value="" style="line;strokeWidth=1;fillColor=none;align=left;verticalAlign=middle;spacingTop=-1;spacingLeft=3;spacingRight=3;rotatable=0;labelPosition=right;points=[];portConstraint=eastwest;" parent="3BqUhhTjt_RYglcjaVS9-23" vertex="1">
                    <mxGeometry y="26" width="160" height="8" as="geometry"/>
                </mxCell>
                <mxCell id="3BqUhhTjt_RYglcjaVS9-26" value="+ Voise(): void" style="text;strokeColor=none;fillColor=none;align=left;verticalAlign=top;spacingLeft=4;spacingRight=4;overflow=hidden;rotatable=0;points=[[0,0.5],[1,0.5]];portConstraint=eastwest;" parent="3BqUhhTjt_RYglcjaVS9-23" vertex="1">
                    <mxGeometry y="34" width="160" height="26" as="geometry"/>
                </mxCell>
                <mxCell id="3BqUhhTjt_RYglcjaVS9-27" value="+ Sleep(): void" style="text;strokeColor=none;fillColor=none;align=left;verticalAlign=top;spacingLeft=4;spacingRight=4;overflow=hidden;rotatable=0;points=[[0,0.5],[1,0.5]];portConstraint=eastwest;" parent="3BqUhhTjt_RYglcjaVS9-23" vertex="1">
                    <mxGeometry y="60" width="160" height="26" as="geometry"/>
                </mxCell>
                <mxCell id="3BqUhhTjt_RYglcjaVS9-28" value="+ Feed(): void" style="text;strokeColor=none;fillColor=none;align=left;verticalAlign=top;spacingLeft=4;spacingRight=4;overflow=hidden;rotatable=0;points=[[0,0.5],[1,0.5]];portConstraint=eastwest;" parent="3BqUhhTjt_RYglcjaVS9-23" vertex="1">
                    <mxGeometry y="86" width="160" height="26" as="geometry"/>
                </mxCell>
                <mxCell id="3BqUhhTjt_RYglcjaVS9-29" value="" style="endArrow=none;html=1;edgeStyle=orthogonalEdgeStyle;rounded=0;exitX=0;exitY=0;exitDx=0;exitDy=0;exitPerimeter=0;entryX=1.002;entryY=1.004;entryDx=0;entryDy=0;entryPerimeter=0;" parent="1" source="GSxFg-PIzHMh7uF5a8ec-16" target="3BqUhhTjt_RYglcjaVS9-26" edge="1">
                    <mxGeometry relative="1" as="geometry">
                        <mxPoint x="468" y="312" as="sourcePoint"/>
                        <mxPoint x="409" y="312" as="targetPoint"/>
                        <Array as="points">
                            <mxPoint x="458" y="312"/>
                            <mxPoint x="458" y="312"/>
                        </Array>
                    </mxGeometry>
                </mxCell>
                <mxCell id="3BqUhhTjt_RYglcjaVS9-30" value="parent" style="edgeLabel;resizable=0;html=1;align=left;verticalAlign=bottom;" parent="3BqUhhTjt_RYglcjaVS9-29" connectable="0" vertex="1">
                    <mxGeometry x="-1" relative="1" as="geometry">
                        <mxPoint x="-35" y="-82" as="offset"/>
                    </mxGeometry>
                </mxCell>
                <mxCell id="3BqUhhTjt_RYglcjaVS9-31" value="child" style="edgeLabel;resizable=0;html=1;align=right;verticalAlign=bottom;" parent="3BqUhhTjt_RYglcjaVS9-29" connectable="0" vertex="1">
                    <mxGeometry x="1" relative="1" as="geometry">
                        <mxPoint x="27" as="offset"/>
                    </mxGeometry>
                </mxCell>
                <mxCell id="3BqUhhTjt_RYglcjaVS9-32" value="Dog" style="swimlane;fontStyle=1;align=center;verticalAlign=top;childLayout=stackLayout;horizontal=1;startSize=26;horizontalStack=0;resizeParent=1;resizeParentMax=0;resizeLast=0;collapsible=1;marginBottom=0;" parent="1" vertex="1">
                    <mxGeometry x="32" y="74" width="160" height="112" as="geometry"/>
                </mxCell>
                <mxCell id="3BqUhhTjt_RYglcjaVS9-33" value="" style="line;strokeWidth=1;fillColor=none;align=left;verticalAlign=middle;spacingTop=-1;spacingLeft=3;spacingRight=3;rotatable=0;labelPosition=right;points=[];portConstraint=eastwest;" parent="3BqUhhTjt_RYglcjaVS9-32" vertex="1">
                    <mxGeometry y="26" width="160" height="8" as="geometry"/>
                </mxCell>
                <mxCell id="3BqUhhTjt_RYglcjaVS9-34" value="+ Voise(): void" style="text;strokeColor=none;fillColor=none;align=left;verticalAlign=top;spacingLeft=4;spacingRight=4;overflow=hidden;rotatable=0;points=[[0,0.5],[1,0.5]];portConstraint=eastwest;" parent="3BqUhhTjt_RYglcjaVS9-32" vertex="1">
                    <mxGeometry y="34" width="160" height="26" as="geometry"/>
                </mxCell>
                <mxCell id="3BqUhhTjt_RYglcjaVS9-35" value="+ Sleep(): void" style="text;strokeColor=none;fillColor=none;align=left;verticalAlign=top;spacingLeft=4;spacingRight=4;overflow=hidden;rotatable=0;points=[[0,0.5],[1,0.5]];portConstraint=eastwest;" parent="3BqUhhTjt_RYglcjaVS9-32" vertex="1">
                    <mxGeometry y="60" width="160" height="26" as="geometry"/>
                </mxCell>
                <mxCell id="3BqUhhTjt_RYglcjaVS9-36" value="+ Feed(): void" style="text;strokeColor=none;fillColor=none;align=left;verticalAlign=top;spacingLeft=4;spacingRight=4;overflow=hidden;rotatable=0;points=[[0,0.5],[1,0.5]];portConstraint=eastwest;" parent="3BqUhhTjt_RYglcjaVS9-32" vertex="1">
                    <mxGeometry y="86" width="160" height="26" as="geometry"/>
                </mxCell>
                <mxCell id="3BqUhhTjt_RYglcjaVS9-37" value="Cat" style="swimlane;fontStyle=1;align=center;verticalAlign=top;childLayout=stackLayout;horizontal=1;startSize=26;horizontalStack=0;resizeParent=1;resizeParentMax=0;resizeLast=0;collapsible=1;marginBottom=0;" parent="1" vertex="1">
                    <mxGeometry x="11" y="257" width="160" height="112" as="geometry"/>
                </mxCell>
                <mxCell id="3BqUhhTjt_RYglcjaVS9-38" value="" style="line;strokeWidth=1;fillColor=none;align=left;verticalAlign=middle;spacingTop=-1;spacingLeft=3;spacingRight=3;rotatable=0;labelPosition=right;points=[];portConstraint=eastwest;" parent="3BqUhhTjt_RYglcjaVS9-37" vertex="1">
                    <mxGeometry y="26" width="160" height="8" as="geometry"/>
                </mxCell>
                <mxCell id="3BqUhhTjt_RYglcjaVS9-39" value="+ Voise(): void" style="text;strokeColor=none;fillColor=none;align=left;verticalAlign=top;spacingLeft=4;spacingRight=4;overflow=hidden;rotatable=0;points=[[0,0.5],[1,0.5]];portConstraint=eastwest;" parent="3BqUhhTjt_RYglcjaVS9-37" vertex="1">
                    <mxGeometry y="34" width="160" height="26" as="geometry"/>
                </mxCell>
                <mxCell id="3BqUhhTjt_RYglcjaVS9-40" value="+ Sleep(): void" style="text;strokeColor=none;fillColor=none;align=left;verticalAlign=top;spacingLeft=4;spacingRight=4;overflow=hidden;rotatable=0;points=[[0,0.5],[1,0.5]];portConstraint=eastwest;" parent="3BqUhhTjt_RYglcjaVS9-37" vertex="1">
                    <mxGeometry y="60" width="160" height="26" as="geometry"/>
                </mxCell>
                <mxCell id="3BqUhhTjt_RYglcjaVS9-41" value="+ Feed(): void" style="text;strokeColor=none;fillColor=none;align=left;verticalAlign=top;spacingLeft=4;spacingRight=4;overflow=hidden;rotatable=0;points=[[0,0.5],[1,0.5]];portConstraint=eastwest;" parent="3BqUhhTjt_RYglcjaVS9-37" vertex="1">
                    <mxGeometry y="86" width="160" height="26" as="geometry"/>
                </mxCell>
                <mxCell id="3BqUhhTjt_RYglcjaVS9-42" value="Hamster" style="swimlane;fontStyle=1;align=center;verticalAlign=top;childLayout=stackLayout;horizontal=1;startSize=26;horizontalStack=0;resizeParent=1;resizeParentMax=0;resizeLast=0;collapsible=1;marginBottom=0;" parent="1" vertex="1">
                    <mxGeometry x="32" y="425" width="160" height="112" as="geometry"/>
                </mxCell>
                <mxCell id="3BqUhhTjt_RYglcjaVS9-43" value="" style="line;strokeWidth=1;fillColor=none;align=left;verticalAlign=middle;spacingTop=-1;spacingLeft=3;spacingRight=3;rotatable=0;labelPosition=right;points=[];portConstraint=eastwest;" parent="3BqUhhTjt_RYglcjaVS9-42" vertex="1">
                    <mxGeometry y="26" width="160" height="8" as="geometry"/>
                </mxCell>
                <mxCell id="3BqUhhTjt_RYglcjaVS9-44" value="+ Voise(): void" style="text;strokeColor=none;fillColor=none;align=left;verticalAlign=top;spacingLeft=4;spacingRight=4;overflow=hidden;rotatable=0;points=[[0,0.5],[1,0.5]];portConstraint=eastwest;" parent="3BqUhhTjt_RYglcjaVS9-42" vertex="1">
                    <mxGeometry y="34" width="160" height="26" as="geometry"/>
                </mxCell>
                <mxCell id="3BqUhhTjt_RYglcjaVS9-45" value="+ Sleep(): void" style="text;strokeColor=none;fillColor=none;align=left;verticalAlign=top;spacingLeft=4;spacingRight=4;overflow=hidden;rotatable=0;points=[[0,0.5],[1,0.5]];portConstraint=eastwest;" parent="3BqUhhTjt_RYglcjaVS9-42" vertex="1">
                    <mxGeometry y="60" width="160" height="26" as="geometry"/>
                </mxCell>
                <mxCell id="3BqUhhTjt_RYglcjaVS9-46" value="+ Feed(): void" style="text;strokeColor=none;fillColor=none;align=left;verticalAlign=top;spacingLeft=4;spacingRight=4;overflow=hidden;rotatable=0;points=[[0,0.5],[1,0.5]];portConstraint=eastwest;" parent="3BqUhhTjt_RYglcjaVS9-42" vertex="1">
                    <mxGeometry y="86" width="160" height="26" as="geometry"/>
                </mxCell>
            </root>
        </mxGraphModel>
    </diagram>
</mxfile>